<svg preserveAspectRatio="none" width="100%" height="100%" overflow="visible" style="display: block;" viewBox="0 0 40 38" fill="none" xmlns="http://www.w3.org/2000/svg">
<g id="Container">
<path id="Icon" d="M0 38V34H18V11.65C17.1333 11.35 16.3833 10.8833 15.75 10.25C15.1167 9.61667 14.65 8.86667 14.35 8H8L14 22C14 23.6667 13.3167 25.0833 11.95 26.25C10.5833 27.4167 8.93333 28 7 28C5.06667 28 3.41667 27.4167 2.05 26.25C0.683333 25.0833 0 23.6667 0 22L6 8H2V4H14.35C14.75 2.83333 15.4667 1.875 16.5 1.125C17.5333 0.375 18.7 0 20 0C21.3 0 22.4667 0.375 23.5 1.125C24.5333 1.875 25.25 2.83333 25.65 4H38V8H34L40 22C40 23.6667 39.3167 25.0833 37.95 26.25C36.5833 27.4167 34.9333 28 33 28C31.0667 28 29.4167 27.4167 28.05 26.25C26.6833 25.0833 26 23.6667 26 22L32 8H25.65C25.35 8.86667 24.8833 9.61667 24.25 10.25C23.6167 10.8833 22.8667 11.35 22 11.65V34H40V38H0V38M29.25 22H36.75L33 13.3L29.25 22V22M3.25 22H10.75L7 13.3L3.25 22V22M20 8C20.5667 8 21.0417 7.80833 21.425 7.425C21.8083 7.04167 22 6.56667 22 6C22 5.43333 21.8083 4.95833 21.425 4.575C21.0417 4.19167 20.5667 4 20 4C19.4333 4 18.9583 4.19167 18.575 4.575C18.1917 4.95833 18 5.43333 18 6C18 6.56667 18.1917 7.04167 18.575 7.425C18.9583 7.80833 19.4333 8 20 8V8" fill="var(--fill-0, #131B2E)"/>
</g>
</svg>
